<?xml version="1.0" standalone="no"?><!DOCTYPE svg PUBLIC "-//W3C//DTD SVG 1.1//EN" "http://www.w3.org/Graphics/SVG/1.1/DTD/svg11.dtd"><svg t="1586671780012" class="icon" viewBox="0 0 1024 1024" version="1.1" xmlns="http://www.w3.org/2000/svg" p-id="5705" xmlns:xlink="http://www.w3.org/1999/xlink" width="32" height="32"><defs><style type="text/css"></style></defs><path d="M884.736 102.4l-147.456 0c-20.48 0-36.864 16.384-36.864 36.864l0 147.456C696.32 311.296 712.704 327.68 733.184 327.68l147.456 0c20.48 0 36.864-16.384 36.864-36.864L917.504 139.264C921.6 118.784 905.216 102.4 884.736 102.4zM884.736 290.816l-147.456 0L737.28 139.264l147.456 0L884.736 290.816z" p-id="5706"></path><path d="M884.736 696.32l-147.456 0c-20.48 0-36.864 16.384-36.864 36.864l0 147.456c0 20.48 16.384 36.864 36.864 36.864l147.456 0c20.48 0 36.864-16.384 36.864-36.864l0-147.456C921.6 712.704 905.216 696.32 884.736 696.32zM884.736 884.736l-147.456 0 0-147.456 147.456 0L884.736 884.736z" p-id="5707"></path><path d="M884.736 401.408l-147.456 0c-20.48 0-36.864 16.384-36.864 36.864l0 147.456c0 20.48 16.384 36.864 36.864 36.864l147.456 0c20.48 0 36.864-16.384 36.864-36.864l0-147.456C921.6 417.792 905.216 401.408 884.736 401.408zM884.736 585.728l-147.456 0 0-147.456 147.456 0L884.736 585.728z" p-id="5708"></path><path d="M585.728 401.408l-147.456 0c-20.48 0-36.864 16.384-36.864 36.864l0 147.456c0 20.48 16.384 36.864 36.864 36.864l147.456 0c20.48 0 36.864-16.384 36.864-36.864l0-147.456C622.592 417.792 606.208 401.408 585.728 401.408zM585.728 585.728l-147.456 0 0-147.456 147.456 0L585.728 585.728z" p-id="5709"></path><path d="M585.728 102.4l-147.456 0c-20.48 0-36.864 16.384-36.864 36.864l0 147.456c0 20.48 16.384 36.864 36.864 36.864l147.456 0c20.48 0 36.864-16.384 36.864-36.864L622.592 139.264C622.592 118.784 606.208 102.4 585.728 102.4zM585.728 290.816l-147.456 0L438.272 139.264l147.456 0L585.728 290.816z" p-id="5710"></path><path d="M585.728 696.32l-147.456 0c-20.48 0-36.864 16.384-36.864 36.864l0 147.456c0 20.48 16.384 36.864 36.864 36.864l147.456 0c20.48 0 36.864-16.384 36.864-36.864l0-147.456C622.592 712.704 606.208 696.32 585.728 696.32zM585.728 884.736l-147.456 0 0-147.456 147.456 0L585.728 884.736z" p-id="5711"></path><path d="M290.816 696.32 139.264 696.32c-20.48 0-36.864 16.384-36.864 36.864l0 147.456c0 20.48 16.384 36.864 36.864 36.864l147.456 0c20.48 0 36.864-16.384 36.864-36.864l0-147.456C327.68 712.704 311.296 696.32 290.816 696.32zM290.816 884.736 139.264 884.736l0-147.456 147.456 0L286.72 884.736z" p-id="5712"></path><path d="M290.816 401.408 139.264 401.408c-20.48 0-36.864 16.384-36.864 36.864l0 147.456c0 20.48 16.384 36.864 36.864 36.864l147.456 0c20.48 0 36.864-16.384 36.864-36.864l0-147.456C327.68 417.792 311.296 401.408 290.816 401.408zM290.816 585.728 139.264 585.728l0-147.456 147.456 0L286.72 585.728z" p-id="5713"></path><path d="M290.816 102.4 139.264 102.4c-20.48 0-36.864 16.384-36.864 36.864l0 147.456C102.4 311.296 118.784 327.68 139.264 327.68l147.456 0C311.296 327.68 327.68 311.296 327.68 290.816L327.68 139.264C327.68 118.784 311.296 102.4 290.816 102.4zM290.816 290.816 139.264 290.816 139.264 139.264l147.456 0L286.72 290.816z" p-id="5714"></path></svg>